#!OML:ASF E:\id_vita\Project 1\Capture day 1\Session 1\Male1.ASF
:FULLY-SPECIFIED
:DEGREES
370
root 44.6396 16.1609 -2.56931 1097.87 83.7417 1099.02
lowerback -5.02436 0.6577 -5.52883
upperback 0.214782 1.30981 -2.13481
thorax 2.97179 0.5988 0.994015
lowerneck -9.04148 1.83106 5.4348
upperneck 12.0503 1.65745 0.870235
head 5.15895 1.14813 -0.493468
rclavicle 2.12203e-014 -2.54444e-014
rhumerus -20.9668 -1.41785 -92.6375
rradius 32.7734
rwrist 0.446079
rhand -22.3819 38.3161
rfingers 7.12502
rthumb 4.04004 8.3747
lclavicle 2.12203e-014 -2.54444e-014
lhumerus -136.786 19.0072 -79.8767
lradius 11.6666
lwrist -114.683
lhand -15.8269 45.4522
lfingers 7.12502
lthumb 10.3672 75.1767
rfemur 9.34924 2.17575 15.1497
rtibia 45.0332
rfoot 12.5568 8.19731
rtoes 17.3985
lfemur -23.0116 3.15123 -22.8536
ltibia 31.5445
lfoot -13.7259 -1.66207
ltoes 3.72605
371
root 44.7906 16.1794 -2.59967 1099.35 83.3571 1100.69
lowerback -5.27807 0.62886 -5.73592
upperback 0.581449 1.3287 -2.23957
thorax 3.49305 0.588157 1.00905
lowerneck -9.15221 1.86666 5.6306
upperneck 11.8243 1.73407 0.34047
head 5.11451 1.15065 -0.684846
rclavicle 3.926e-015 2.3059e-014
rhumerus -20.8653 -2.23531 -92.8001
rradius 31.4338
rwrist 0.978059
rhand -22.3677 37.7992
rfingers 7.12502
rthumb 4.05374 7.85805
lclavicle 3.926e-015 2.3059e-014
lhumerus -138.34 19.2831 -80.4868
lradius 11.5592
lwrist -116.187
lhand -15.9735 45.5648
lfingers 7.12502
lthumb 10.2257 75.2963
rfemur 8.08491 2.16396 14.7198
rtibia 47.5357
rfoot 13.7866 8.51454
rtoes 16.2102
lfemur -21.9776 3.36816 -23.3363
ltibia 31.2494
lfoot -14.3397 -1.21571
ltoes 4.16733
372
root 44.9255 16.1873 -2.62734 1104.8 82.7649 1106.46
lowerback -4.73917 0.587078 -6.60493
upperback 0.560001 1.29703 -2.47885
thorax 3.15864 0.571861 1.23403
lowerneck -9.11862 1.91077 5.94305
upperneck 11.8966 1.8164 -0.179237
head 5.14069 1.17091 -0.891556
rclavicle 4.42296e-015 -1.27222e-014
rhumerus -21.3419 -2.92614 -92.9288
rradius 29.8993
rwrist 1.23484
rhand -22.4219 37.7959
rfingers 7.12502
rthumb 4.00135 7.85368
lclavicle 4.42296e-015 -1.27222e-014
lhumerus -139.408 19.3819 -81.0787
lradius 11.5328
lwrist -118.089
lhand -15.8448 45.3476
lfingers 7.12502
lthumb 10.3499 75.0729
rfemur 6.98026 2.31322 13.7094
rtibia 49.9309
rfoot 14.5853 7.5915
rtoes 17.2394
lfemur -20.8389 3.5777 -24.4003
ltibia 30.8997
lfoot -14.7433 -0.814998
ltoes 4.9072
373
root 45.0455 16.207 -2.65473 1104.68 82.5364 1106.4
lowerback -4.94862 0.731742 -6.44005
upperback 0.975857 1.53003 -2.60248
thorax 3.70129 0.670487 1.03783
lowerneck -9.65321 1.84866 6.32268
upperneck 11.815 1.72777 -0.932076
head 5.21144 1.08737 -1.19103
rclavicle -2.23633e-015 -3.33958e-014
rhumerus -20.9785 -4.62485 -92.774
rradius 28.2735
rwrist 2.03743
rhand -22.4057 37.7478
rfingers 7.12502
rthumb 4.01705 7.80595
lclavicle -2.23633e-015 -3.33958e-014
lhumerus -142.031 18.8326 -83.254
lradius 11.658
lwrist -122.056
lhand -15.9575 45.0439
lfingers 7.12502
lthumb 10.2411 74.7746
rfemur 5.49274 2.47051 13.7305
rtibia 52.3009
rfoot 14.9779 5.93477
rtoes 14.8486
lfemur -20.0211 3.8065 -24.5811
ltibia 30.5498
lfoot -15.1371 -0.643624
ltoes 6.23336
374
root 45.1934 16.2334 -2.68948 1105.96 82.254 1107.72
lowerback -4.60256 0.766962 -6.54745
upperback 0.643432 1.53601 -2.66681
thorax 3.15869 0.693567 1.02273
lowerneck -8.86381 1.7022 5.78415
upperneck 11.5882 1.623 -0.574275
head 4.99611 1.03543 -1.00573
rclavicle -7.23079e-015 -2.94201e-014
rhumerus -22.0233 -6.00057 -92.4528
rradius 26.8043
rwrist 2.93678
rhand -22.3468 37.4093
rfingers 7.12502
rthumb 4.07388 7.46854
lclavicle -7.23079e-015 -2.94201e-014
lhumerus -142.202 20.4048 -82.1272
lradius 11.3842
lwrist -122.125
lhand -16.0962 45.1006
lfingers 7.12502
lthumb 10.1074 74.8379
rfemur 4.1429 2.238 13.317
rtibia 54.4571
rfoot 13.7586 4.46183
rtoes 13.6012
lfemur -19.1551 3.95393 -25.0599
ltibia 30.3012
lfoot -15.5215 -0.421905
ltoes 6.90386
375
root 45.3095 16.2595 -2.71175 1105.4 82.1458 1107.22
lowerback -4.41815 0.715976 -6.63445
upperback 0.769722 1.45896 -2.5787
thorax 3.18672 0.649011 1.15437
lowerneck -8.95212 1.72844 5.35423
upperneck 11.4724 1.66678 -0.222297
head 4.96956 1.05794 -0.823246
rclavicle 1.2921e-014 3.18055e-015
rhumerus -21.9862 -6.91093 -92.2404
rradius 24.9114
rwrist 3.6666
rhand -22.3714 37.3573
rfingers 7.12502
rthumb 4.05012 7.4161
lclavicle 1.2921e-014 3.18055e-015
lhumerus -142.77 23.0728 -80.2648
lradius 11.0026
lwrist -120.724
lhand -15.8652 45.2349
lfingers 7.12502
lthumb 10.3302 74.9612
rfemur 2.67788 2.01904 13.4211
rtibia 56.4813
rfoot 12.5222 2.17596
rtoes 13.7651
lfemur -18.5096 3.98922 -25.112
ltibia 30.164
lfoot -15.4626 -0.281608
ltoes 6.86816
376
root 45.4318 16.2955 -2.74042 1103.6 82.2438 1105.43
lowerback -4.3664 0.751556 -6.21064
upperback 0.899515 1.48162 -2.54303
thorax 3.29889 0.661444 0.957405
lowerneck -9.23379 1.82884 5.46284
upperneck 11.7424 1.79227 -0.418308
head 5.10687 1.11564 -0.890054
rclavicle 5.14355e-015 6.52014e-014
rhumerus -22.555 -8.66765 -91.8042
rradius 24.0538
rwrist 5.10758
rhand -22.1022 37.2518
rfingers 7.12502
rthumb 4.31009 7.31564
lclavicle 5.14355e-015 6.52014e-014
lhumerus -143.307 26.1407 -78.5312
lradius 10.5929
lwrist -119.428
lhand -15.8072 45.1607
lfingers 7.12502
lthumb 10.3861 74.8842
rfemur 1.27259 1.77849 13.7754
rtibia 58.2685
rfoot 10.8008 -0.197152
rtoes 16.106
lfemur -17.8626 4.00923 -24.9536
ltibia 29.972
lfoot -15.4444 -0.336038
ltoes 7.97722
377
root 45.5673 16.3062 -2.77622 1106.11 82.2565 1107.97
lowerback -4.55798 0.78026 -6.18489
upperback 1.05958 1.55405 -2.69588
thorax 3.57455 0.691556 0.794792
lowerneck -9.57345 1.7223 5.25019
upperneck 12.0921 1.65106 -0.373508
head 5.2661 1.04611 -0.848672
rclavicle -1.70955e-014 -1.90833e-014
rhumerus -22.4641 -10.2229 -91.2325
rradius 21.6782
rwrist 6.60394
rhand -22.1728 37.8397
rfingers 7.12502
rthumb 4.24189 7.90216
lclavicle -1.70955e-014 -1.90833e-014
lhumerus -143.865 29.1051 -77.0337
lradius 10.1828
lwrist -118.324
lhand -16.0783 44.8559
lfingers 7.12502
lthumb 10.1246 74.5923
rfemur 0.0102286 1.14437 13.2908
rtibia 59.8366
rfoot 9.08938 -1.15908
rtoes 13.7839
lfemur -16.9855 4.13722 -25.5538
ltibia 29.7547
lfoot -15.8957 -0.132781
ltoes 8.37812
378
root 45.688 16.2887 -2.80249 1107.94 82.2945 1109.85
lowerback -4.28756 0.576176 -6.50222
upperback 0.882088 1.26473 -2.65926
thorax 3.24747 0.552895 0.983248
lowerneck -9.18456 2.07741 5.80865
upperneck 12.2389 2.15548 -0.949642
head 5.27309 1.28365 -1.0844
rclavicle -2.68359e-015 -1.74931e-014
rhumerus -22.953 -11.9471 -90.5107
rradius 19.3856
rwrist 9.18783
rhand -22.1412 38.2629
rfingers 7.12502
rthumb 4.27244 8.326
lclavicle -2.68359e-015 -1.74931e-014
lhumerus -140.122 37.2943 -69.1321
lradius 9.47097
lwrist -108.909
lhand -15.7985 44.9387
lfingers 7.12502
lthumb 10.3946 74.6618
rfemur -1.34702 0.543357 12.9938
rtibia 61.2227
rfoot 7.58026 -2.04502
rtoes 16.8927
lfemur -16.432 4.05761 -25.9302
ltibia 29.7378
lfoot -16.313 0.201068
ltoes 6.78859
379
root 45.8217 16.3336 -2.82383 1106.3 82.6211 1108.09
lowerback -4.38455 0.479998 -6.1694
upperback 0.877623 1.11704 -2.52601
thorax 3.309 0.48093 0.927262
lowerneck -8.8231 1.88766 5.44147
upperneck 12.0953 1.96184 -0.843278
head 5.15506 1.1785 -1.00931
rclavicle -8.62228e-015 1.19271e-014
rhumerus -23.3466 -14.9245 -89.3724
rradius 17.4192
rwrist 12.7541
rhand -21.9797 38.5881
rfingers 7.12502
rthumb 4.42841 8.65442
lclavicle -8.62228e-015 1.19271e-014
lhumerus -135.33 46.0453 -60.4349
lradius 8.98603
lwrist -99.4534
lhand -15.5834 45.4231
lfingers 7.12502
lthumb 10.6021 75.1357
rfemur -2.71989 0.287055 13.5092
rtibia 62.2715
rfoot 5.65181 -3.35961
rtoes 18.2794
lfemur -16.5604 3.34652 -25.49
ltibia 29.6242
lfoot -15.3255 -0.539377
ltoes 5.92405
